PathFileType  4	(X/Y/Z) C:\Users\antoi\Documents\MyRepositories\mobilecap\ResultsAnalysis
DataRate	CameraRate	NumFrames	NumMarkers	Units	OrigDataRate	OrigDataStartFrame	OrigNumFrames
100.0	100.0	4	51	mm	100.0	110	146
Frame#	Time	r_knee			r_shank_antsup			r_ankle			r_calc			r_5meta			r_toe			L_knee			L_shank_antsup			L_ankle			L_calc			L_5meta			L_toe			r_sh2			r_sh3			r_sh4			L_sh2			L_sh3			r_thigh1			r_thigh2			r_thigh3			r_thigh4			r_thigh5			L_thigh1			L_thigh2			L_thigh3			L_thigh4			r.ASIS			r.PSIS			L.ASIS			L.PSIS			C7			R_Shoulder			L_Shoulder			R_Sternum			L_Sternum			R_humerus			R_elbow_med			R_elbow_lat			R_forearm			R_wrist_radius			R_wrist_ulna			L_humerus			L_elbow_med			L_elbow_lat			L_forearm			L_wrist_radius			L_wrist_ulna			R_HJC			L_HJC			R_HJC_reg			L_HJC_reg			
		X1	Y1	Z1	X2	Y2	Z2	X3	Y3	Z3	X4	Y4	Z4	X5	Y5	Z5	X6	Y6	Z6	X7	Y7	Z7	X8	Y8	Z8	X9	Y9	Z9	X10	Y10	Z10	X11	Y11	Z11	X12	Y12	Z12	X13	Y13	Z13	X14	Y14	Z14	X15	Y15	Z15	X16	Y16	Z16	X17	Y17	Z17	X18	Y18	Z18	X19	Y19	Z19	X20	Y20	Z20	X21	Y21	Z21	X22	Y22	Z22	X23	Y23	Z23	X24	Y24	Z24	X25	Y25	Z25	X26	Y26	Z26	X27	Y27	Z27	X28	Y28	Z28	X29	Y29	Z29	X30	Y30	Z30	X31	Y31	Z31	X32	Y32	Z32	X33	Y33	Z33	X34	Y34	Z34	X35	Y35	Z35	X36	Y36	Z36	X37	Y37	Z37	X38	Y38	Z38	X39	Y39	Z39	X40	Y40	Z40	X41	Y41	Z41	X42	Y42	Z42	X43	Y43	Z43	X44	Y44	Z44	X45	Y45	Z45	X46	Y46	Z46	X47	Y47	Z47	X48	Y48	Z48	X49	Y49	Z49	X50	Y50	Z50	X51	Y51	Z51	

110	1.09000000	1203.73550	539.88579	-75.87487	1246.56885	472.97002	-65.53103	1310.35932	114.87184	-97.97800	1271.00171	49.72302	-148.55271	1465.50726	85.17826	-52.38736	1492.97980	125.34872	-105.06392	990.77756	532.91399	-352.04687	997.34049	408.47898	-356.32746	872.49854	101.94513	-320.97930	796.37340	59.57205	-289.83617	1024.64721	30.46940	-346.53531	1039.61067	55.50048	-278.18529	1278.39241	364.75158	-59.21278	1173.38379	452.79639	-50.46984	1197.40964	340.76878	-57.22535	912.24694	436.29570	-375.60395	886.52643	318.11832	-370.62951	1176.27571	857.25420	-40.84668	1217.83814	756.78985	-57.73069	1177.11775	710.18355	-26.73433	1073.22765	812.28694	-35.81464	1121.31046	706.10679	-40.42253	1112.80612	843.94976	-388.28260	1101.42621	708.50787	-375.95551	994.91230	852.27106	-390.71214	990.88711	711.72994	-382.38278	1160.75125	1039.12109	-93.13906	969.87159	1093.03929	-161.35546	1156.16141	1031.89935	-351.38980	966.08075	1095.66000	-263.89544	1027.63987	1592.41846	-301.55837	1066.99344	1590.11222	-131.54712	1090.25338	1548.94799	-436.42384	1177.46521	1521.74707	-247.43378	1181.38709	1511.49579	-303.72930	992.50863	1353.22470	3.43431	955.63183	1252.26153	-57.24797	958.96356	1270.45455	25.17475	1039.17485	1136.11482	71.74115	1094.54899	1035.90386	85.29772	1051.15309	1032.13393	95.34455	1153.52457	1315.22239	-545.42196	1139.45888	1201.65177	-500.78165	1164.78426	1225.81028	-562.65020	1309.24924	1126.43681	-576.65640	1392.74690	1073.70696	-564.11480	1370.81369	1047.70304	-584.13663	1070.34790	967.51373	-93.54646	1064.06473	964.16134	-323.80422	1082.60959	963.32901	-128.64395	1076.31112	967.68320	-299.00993	
111	1.10000000	1212.63335	537.15786	-75.34449	1257.62463	472.02952	-65.51645	1332.79097	115.27583	-97.42031	1295.11985	48.64894	-147.10497	1489.88226	90.84982	-53.71331	1514.94866	131.76261	-106.84227	998.44747	532.12115	-352.30301	1003.16075	407.49409	-356.38188	873.25582	102.84190	-321.10190	796.58543	60.65794	-289.92438	1024.62859	30.40357	-346.66701	1039.75118	55.30082	-278.20247	1292.91390	364.79415	-59.02371	1185.25249	449.57025	-49.52835	1212.82258	338.35838	-56.22319	918.55115	436.69811	-376.11040	890.88593	318.76074	-370.94549	1186.67534	854.46561	-41.31215	1227.28505	753.54295	-58.05849	1186.59214	707.55332	-26.70127	1083.49485	810.45502	-35.77617	1130.47922	703.57150	-40.18510	1123.25176	842.44311	-388.30839	1110.88233	707.08553	-375.84143	1005.34863	851.57514	-391.02907	1000.35957	711.06481	-382.56151	1172.36562	1037.12248	-93.08037	981.33857	1090.91025	-161.11114	1167.86132	1030.25499	-351.42308	977.61815	1093.80559	-263.63131	1037.65912	1591.07751	-298.76040	1076.71555	1587.43748	-128.64280	1100.62727	1549.01374	-433.66245	1187.54202	1520.38600	-244.94122	1191.74922	1510.60572	-301.23877	1003.16222	1349.16526	4.40325	966.84178	1248.31365	-57.01450	969.90272	1266.11131	25.49829	1050.40034	1131.74067	71.44053	1106.06571	1031.62230	84.50608	1062.65468	1027.64208	94.40586	1166.77319	1317.30282	-544.36671	1154.06846	1203.09076	-500.86841	1179.47770	1228.09724	-562.32145	1326.21792	1131.97325	-575.53717	1410.89921	1081.42351	-562.40731	1390.01589	1054.75362	-582.68211	1082.04229	965.39922	-93.58241	1075.72721	962.43919	-323.84559	1094.29747	961.09704	-128.85729	1088.11337	965.90970	-299.26882	
112	1.11000000	1222.37805	534.86440	-74.79315	1268.99594	471.14966	-65.42448	1352.51068	115.40677	-96.92138	1315.98874	47.62529	-145.71946	1511.24459	95.13027	-55.53196	1534.07214	136.64916	-109.09967	1006.75402	531.20817	-352.55588	1009.51999	406.40070	-356.44576	874.16647	103.88793	-321.34412	796.81647	62.11396	-290.11888	1024.65899	30.30047	-346.81440	1039.92187	55.08180	-278.22499	1306.82568	364.69623	-58.82376	1197.32824	447.03204	-48.46319	1227.45339	336.46212	-55.10341	925.46853	437.04844	-376.62171	895.69264	319.44543	-371.37421	1197.55754	852.14519	-41.69156	1237.44999	750.84574	-58.27168	1196.80750	705.35664	-26.59085	1094.33551	808.82680	-35.58333	1140.46698	701.48285	-39.82168	1134.03138	840.93625	-388.22149	1120.77221	705.60320	-375.72206	1016.11818	850.75172	-391.29836	1010.27908	710.28399	-382.80218	1183.95904	1035.23435	-92.89841	992.80416	1088.85275	-160.86945	1179.63259	1028.59624	-351.35973	989.23307	1091.93672	-263.38124	1047.76192	1589.77371	-295.88276	1086.43292	1584.74089	-125.68654	1111.04892	1549.06404	-430.84200	1197.65856	1519.03771	-242.38558	1202.18134	1509.72403	-298.66720	1013.88720	1345.06238	5.39936	978.16853	1244.30415	-56.75290	980.95266	1261.71795	25.83709	1061.67275	1127.31863	71.20627	1117.61384	1027.27648	83.81736	1074.17542	1023.09648	93.53924	1179.76957	1319.29750	-543.19427	1168.34673	1204.51509	-500.84178	1193.89710	1230.32089	-561.84096	1342.62932	1137.27668	-574.25178	1428.51010	1088.82936	-560.49755	1408.49989	1061.61769	-580.98915	1093.72357	963.39016	-93.51249	1087.47612	960.69893	-323.78153	1105.93864	958.98641	-128.95048	1100.00011	964.11524	-299.43354	
113	1.12000000	1233.09724	533.05713	-74.29998	1280.76851	470.26883	-65.30818	1369.31564	115.04741	-96.47939	1333.25123	46.55275	-144.45125	1529.35931	97.43971	-57.75465	1550.29293	139.43621	-111.71419	1015.70915	530.19413	-352.78151	1016.41178	405.22094	-356.52898	875.25125	105.11635	-321.70356	797.10180	63.98891	-290.41959	1024.73396	30.16807	-346.97149	1040.09396	54.84652	-278.25686	1320.13760	364.32335	-58.66445	1209.64160	445.17309	-47.38110	1241.24193	334.99914	-53.96718	932.99417	437.36465	-377.11002	900.94367	320.20529	-371.89578	1208.98469	850.37109	-41.92358	1248.42645	748.79579	-58.37971	1207.84726	703.62967	-26.41042	1105.78920	807.44255	-35.26099	1151.38983	699.86809	-39.39364	1145.11628	839.45219	-387.99045	1131.10104	704.09255	-375.55330	1027.18726	849.84548	-391.49373	1020.63390	709.40125	-383.06419	1195.53801	1033.53900	-92.55762	1004.27220	1086.89382	-160.64227	1191.46860	1026.95930	-351.17158	1000.91562	1090.07396	-263.15287	1057.96666	1588.54682	-292.93685	1096.15148	1582.07276	-122.69703	1121.52975	1549.13770	-427.97725	1207.82556	1517.74607	-239.77466	1212.67758	1508.88715	-296.02589	1024.68931	1340.96196	6.40592	989.63468	1240.30750	-56.49741	992.12712	1257.32306	26.17022	1072.99448	1122.88918	71.02900	1129.17846	1022.90331	83.23040	1085.70054	1018.54070	92.74023	1192.53005	1321.20865	-541.90683	1182.30961	1205.91664	-500.68577	1208.02629	1232.49379	-561.21351	1358.50780	1142.34959	-572.79142	1445.55788	1095.91922	-558.37324	1426.28944	1068.26178	-579.06538	1105.40236	961.55304	-93.30651	1099.33258	958.96215	-323.58149	1117.56492	957.03927	-128.87418	1111.98009	962.33125	-299.46057	
